<?xml version="1.0" encoding="iso-8859-1"?>
<!-- Uploaded to: SVG Repo, www.svgrepo.com, Generator: SVG Repo Mixer Tools -->
<svg version="1.1" id="Layer_1" xmlns="http://www.w3.org/2000/svg" xmlns:xlink="http://www.w3.org/1999/xlink" 
	 viewBox="0 0 512 512" xml:space="preserve">
<path style="fill:#CD2A00;" d="M454.163,247.417v-57.44c0-7.241,5.925-13.166,13.166-13.166h31.506
	c7.241,0,13.166,5.924,13.166,13.166v139.34v58.541h-57.837v-82.136V247.417z"/>
<g>
	<rect id="SVGCleanerId_0" x="56.675" y="296.002" style="fill:#FF5023;" width="398.654" height="91.854"/>
</g>
<g>
	<rect id="SVGCleanerId_0_1_" x="56.675" y="296.002" style="fill:#FF5023;" width="398.654" height="91.854"/>
</g>
<g>
	<rect id="SVGCleanerId_0_2_" x="56.675" y="296.002" style="fill:#FF5023;" width="398.654" height="91.854"/>
</g>
<path style="fill:#FF6243;" d="M454.163,254.192V130.17c0-19.606-16.042-35.648-35.648-35.648H160.552H93.486
	c-19.606,0-35.648,16.042-35.648,35.648v124.022L454.163,254.192L454.163,254.192z"/>
<path style="opacity:0.19;fill:#891C00;enable-background:new    ;" d="M421.079,94.58c0.037,0.657,0.059,1.317,0.059,1.983v95.911
	c0,15.525-12.585,28.11-28.111,28.11H58.419v33.606h396.324V130.17C454.743,111.23,439.771,95.618,421.079,94.58z"/>
<path style="fill:#CD2A00;" d="M57.837,247.417v-57.44c0-7.241-5.924-13.166-13.166-13.166H13.166C5.924,176.81,0,182.735,0,189.977
	v139.34v58.541h57.837v-82.136V247.417z"/>
<g>
	<rect x="22.389" y="387.857" style="fill:#FF6243;" width="68.573" height="29.621"/>
	<rect x="419.878" y="387.857" style="fill:#FF6243;" width="68.573" height="29.621"/>
</g>
<g>
	<path style="fill:#CD2A00;" d="M254.981,210.533c-4.348,0-7.872-3.524-7.872-7.872v-20.705c0-4.349,3.525-7.872,7.872-7.872
		c4.348,0,7.872,3.524,7.872,7.872v20.705C262.854,207.01,259.329,210.533,254.981,210.533z"/>
	<path style="fill:#CD2A00;" d="M255.367,255.698c-4.348,0-7.872-3.524-7.872-7.872v-20.704c0-4.349,3.525-7.872,7.872-7.872
		c4.348,0,7.872,3.524,7.872,7.872v20.704C263.239,252.174,259.714,255.698,255.367,255.698z"/>
	<path style="fill:#CD2A00;" d="M312.51,255.289c-2.014,0-4.03-0.768-5.566-2.305c-3.074-3.075-3.074-8.059,0-11.134l36.392-36.392
		c3.074-3.073,8.059-3.073,11.132,0c3.074,3.075,3.074,8.059,0,11.134l-36.392,36.392
		C316.54,254.521,314.525,255.289,312.51,255.289z"/>
	<path style="fill:#CD2A00;" d="M196.943,255.289c-2.014,0-4.03-0.768-5.566-2.305l-36.392-36.392
		c-3.074-3.075-3.074-8.059,0-11.134c3.074-3.073,8.059-3.073,11.133,0l36.392,36.392c3.074,3.075,3.074,8.059,0,11.134
		C200.972,254.521,198.958,255.289,196.943,255.289z"/>
	<path style="fill:#CD2A00;" d="M90.962,202.136c-4.348,0-7.872-3.524-7.872-7.872V144.56c0-14.362,11.685-26.046,26.046-26.046
		h34.968c4.348,0,7.872,3.524,7.872,7.872c0,4.349-3.525,7.872-7.872,7.872h-34.968c-5.681,0-10.301,4.621-10.301,10.301v49.704
		C98.834,198.612,95.31,202.136,90.962,202.136z"/>
</g>
<rect x="57.835" y="304.777" style="opacity:0.4;fill:#891C00;enable-background:new    ;" width="397.489" height="26.139"/>
<path style="fill:#FF7956;" d="M144.104,249.293h306.308c6.928,0,12.596,5.668,12.596,12.596v30.14
	c0,6.928-5.668,12.596-12.596,12.596H59.777c-6.928,0-12.596-5.668-12.596-12.596v-30.14c0-6.928,5.668-12.596,12.596-12.596h33.708
	H144.104z"/>
</svg>