<?xml version="1.0" encoding="iso-8859-1"?>
<!-- Uploaded to: SVG Repo, www.svgrepo.com, Generator: SVG Repo Mixer Tools -->
<svg version="1.1" id="Layer_1" xmlns="http://www.w3.org/2000/svg" xmlns:xlink="http://www.w3.org/1999/xlink" 
	 viewBox="0 0 512 512" xml:space="preserve" style="position: absolute; top: 50%; left: 50%; transform: translate(-50%, -50%); width: 340px; height: auto; z-index: 1;">
<polygon style="fill:#A43700;" points="465.539,365.101 444.641,322.931 235.102,302.033 256,407.272 444.641,407.272 "/>
<polygon style="fill:#DA6A1F;" points="67.359,322.931 46.461,365.101 67.359,407.272 256,407.272 256,302.033 "/>
<path style="fill:#A43700;" d="M478.32,140.538c0-19.777-16.032-35.81-35.81-35.81H256l-20.898,191.213l243.218-20.898V140.538z"/>
<path style="fill:#DA6A1F;" d="M69.489,104.728c-19.777,0-35.81,16.032-35.81,35.81v134.507L256,295.942V104.728H69.489z"/>
<polygon style="fill:#723900;" points="478.32,275.043 256,275.043 235.102,298.987 256,322.931 478.32,322.931 "/>
<rect x="33.677" y="275.048" style="fill:#A43700;" width="222.323" height="47.887"/>
<path style="fill:#FF9933;" d="M67.359,407.272H0V259.658c0-10.553,8.555-19.108,19.108-19.108h29.143
	c10.553,0,19.108,8.555,19.108,19.108C67.359,259.658,67.359,407.272,67.359,407.272z"/>
<path style="fill:#DA6A1F;" d="M512,407.272h-67.359V259.658c0-10.553,8.555-19.108,19.108-19.108h29.143
	c10.553,0,19.108,8.555,19.108,19.108L512,407.272L512,407.272z"/>
</svg>